<svg width="113" height="158" viewBox="0 0 113 158" fill="none" xmlns="http://www.w3.org/2000/svg">
<path fill-rule="evenodd" clip-rule="evenodd" d="M0.415039 7.88073V0.414062H7.88171H15.3484H22.815H30.2817H37.7484H45.215H52.6817H60.1484H67.615H75.0817H82.5484H90.015H97.4817H104.948H112.415V7.88073V15.3474V22.8141V30.2807V37.7474V45.2141V52.6807V60.1474V67.6141V75.0807V82.5474V90.0141V97.4807H104.948H97.4817H90.015H82.5484H75.0817V90.0141V82.5474V75.0807V67.6141V60.1474H67.615V67.6141V75.0807H60.1484V82.5474H52.6817V90.0141V97.4807H45.215H37.7484V104.947V112.414V119.881V127.347V134.814V142.281V149.747V157.214H30.2817H22.815H15.3484H7.88171V149.747H0.415039V142.281V134.814V127.347V119.881V112.414V104.947V97.4807H7.88171V90.0141V82.5474H15.3484V75.0807H22.815V67.6141V60.1474H30.2817V52.6807H22.815H15.3484H7.88171H0.415039V45.2141V37.7474V30.2807V22.8141V15.3474V7.88073ZM7.88171 7.88073V15.3474V22.8141V30.2807V37.7474V45.2141H15.3484H22.815H30.2817H37.7484V52.6807V60.1474H30.2817V67.6141V75.0807H22.815V82.5474H15.3484V90.0141V97.4807H7.88171V104.947V112.414V119.881V127.347V134.814V142.281V149.747H15.3484H22.815H30.2817V142.281V134.814V127.347V119.881V112.414V104.947V97.4807H37.7484V90.0141H45.215V82.5474H52.6817V75.0807H60.1484V67.6141V60.1474H67.615V52.6807H75.0817V45.2141H82.5484V52.6807V60.1474V67.6141V75.0807V82.5474V90.0141H90.015H97.4817H104.948V82.5474V75.0807V67.6141V60.1474V52.6807V45.2141V37.7474V30.2807V22.8141V15.3474V7.88073H97.4817H90.015H82.5484H75.0817H67.615H60.1484H52.6817H45.215H37.7484H30.2817H22.815H15.3484H7.88171Z" fill="#A8C7FF"/>
<path d="M67.615 60.1474H75.0817V67.6141V75.0807V82.5474V90.0141V97.4807H82.5484H90.015H97.4817H104.948H112.415V90.0141V82.5474V75.0807V67.6141V60.1474V52.6807V45.2141V37.7474V30.2807V22.8141V15.3474V7.88073V0.414062H104.948H97.4817H90.015H82.5484H75.0817H67.615H60.1484H52.6817H45.215H37.7484H30.2817H22.815H15.3484H7.88171H0.415039V7.88073V15.3474V22.8141V30.2807V37.7474V45.2141V52.6807H7.88171H15.3484H22.815H30.2817V60.1474M67.615 60.1474V67.6141V75.0807H60.1484M67.615 60.1474H60.1484V67.6141V75.0807M67.615 60.1474V52.6807H75.0817V45.2141H82.5484V52.6807V60.1474V67.6141V75.0807V82.5474V90.0141H90.015H97.4817H104.948V82.5474V75.0807V67.6141V60.1474V52.6807V45.2141V37.7474V30.2807V22.8141V15.3474V7.88073H97.4817H90.015H82.5484H75.0817H67.615H60.1484H52.6817H45.215H37.7484H30.2817H22.815H15.3484H7.88171V15.3474V22.8141V30.2807V37.7474V45.2141H15.3484H22.815H30.2817H37.7484V52.6807V60.1474H30.2817M60.1484 75.0807V82.5474H52.6817M60.1484 75.0807H52.6817V82.5474M52.6817 82.5474V90.0141V97.4807H45.215H37.7484M52.6817 82.5474H45.215V90.0141H37.7484V97.4807M37.7484 97.4807V104.947V112.414V119.881V127.347V134.814V142.281V149.747V157.214H30.2817H22.815H15.3484H7.88171V149.747M37.7484 97.4807H30.2817V104.947V112.414V119.881V127.347V134.814V142.281V149.747H22.815H15.3484H7.88171M7.88171 149.747H0.415039V142.281V134.814V127.347V119.881V112.414V104.947V97.4807H7.88171M7.88171 149.747V142.281V134.814V127.347V119.881V112.414V104.947V97.4807M7.88171 97.4807V90.0141V82.5474H15.3484M7.88171 97.4807H15.3484V90.0141V82.5474M15.3484 82.5474V75.0807H22.815M15.3484 82.5474H22.815V75.0807M22.815 75.0807V67.6141V60.1474H30.2817M22.815 75.0807H30.2817V67.6141V60.1474" stroke="#A8C7FF" stroke-width="0.82963"/>
</svg>
