<svg width="20" height="20" viewBox="0 0 20 20" fill="none" xmlns="http://www.w3.org/2000/svg">
<path fill-rule="evenodd" clip-rule="evenodd" d="M2 17V16H3V17H2ZM3 18V17H4V18H3ZM4 17V16H5V17H4ZM5 16V15H6V16H5ZM4 15V14H5V15H4ZM3 16V15H4V16H3Z" fill="white"/>
<path fill-rule="evenodd" clip-rule="evenodd" d="M2 10H1V11H0V10V9H1H2H3V10V11H2V12H1V11H2V10Z" fill="white"/>
<path fill-rule="evenodd" clip-rule="evenodd" d="M11 2V1H12V2H11ZM11 1H10V2H11V3H10H9V2V1V0H10H11V1Z" fill="white"/>
<path fill-rule="evenodd" clip-rule="evenodd" d="M4 6V5H5V6H4ZM5 5V4H6V5H5ZM4 4V3H5V4H4ZM3 3V2H4V3H3ZM2 4V3H3V4H2ZM3 5V4H4V5H3Z" fill="white"/>
<path fill-rule="evenodd" clip-rule="evenodd" d="M16 5V4H17V5H16ZM17 4V3H18V4H17ZM16 3V2H17V3H16ZM15 4V3H16V4H15ZM14 5V4H15V5H14ZM15 6V5H16V6H15Z" fill="white"/>
<path fill-rule="evenodd" clip-rule="evenodd" d="M17 10V9H18H19H20V10V11H19V12H18V11H17V10ZM18 10V11H19V10H18Z" fill="white"/>
<path fill-rule="evenodd" clip-rule="evenodd" d="M9 19V18V17H10H11V18H12V19H11V20H10H9V19ZM10 18V19H11V18H10Z" fill="white"/>
<path fill-rule="evenodd" clip-rule="evenodd" d="M15 15V14H16V15H15ZM14 16V15H15V16H14ZM15 17V16H16V17H15ZM16 18V17H17V18H16ZM17 17V16H18V17H17ZM16 16V15H17V16H16Z" fill="white"/>
<path fill-rule="evenodd" clip-rule="evenodd" d="M5 8V7V6H6V7V8H5ZM6 6V5H7H8V6H7H6ZM4 11V10V9V8H5V9V10V11V12H6V13V14H5V13V12H4V11ZM8 16V15H9H10H11H12V16H11H10H9H8ZM8 15H7H6V14H7H8V15ZM14 14V13V12H15V11V10V9V8H14V7V6H15V7V8H16V9V10V11V12H15V13V14H14ZM14 15H13H12V14H13H14V15ZM12 5H11H10H9H8V4H9H10H11H12V5ZM12 6V5H13H14V6H13H12Z" fill="white"/>
<path fill-rule="evenodd" clip-rule="evenodd" d="M6 12V11V10V9V8H7V9V10V11V12H6ZM7 13V12H8V13H7ZM8 7V6H9H10H11H12V7H13V8H12V7H11H10H9H8ZM7 8V7H8V8H7ZM13 10V9V8H14V9V10V11V12H13V11V10ZM12 14H11H10H9H8V13H9H10H11H12V14ZM12 13V12H13V13H12Z" fill="white"/>
</svg>
