<svg width="49" height="49" viewBox="0 0 49 49" fill="none" xmlns="http://www.w3.org/2000/svg">
<rect width="49" height="49" rx="6" fill="#999999"/>
<path fill-rule="evenodd" clip-rule="evenodd" d="M17.5449 22.2718V21.0901H18.7266V22.2718V23.4535H17.5449V22.2718ZM21.09 23.4535V22.2718H22.2717V21.0901V19.9084V18.7267V17.5451V16.3634V15.1817V14H23.4534H24.635H25.8167V15.1817V16.3634V17.5451V18.7267V19.9084V21.0901H26.9984V19.9084H28.1801V21.0901H26.9984V22.2718H25.8167V23.4535H24.635V22.2718V21.0901V19.9084V18.7267V17.5451V16.3634V15.1817H23.4534V16.3634V17.5451V18.7267V19.9084V21.0901V22.2718V23.4535H22.2717H21.09ZM19.9083 22.2718V21.0901H21.09V22.2718H19.9083ZM18.7266 21.0901V19.9084H19.9083V21.0901H18.7266ZM28.1801 22.2718V21.0901H29.3618V22.2718V23.4535H28.1801V24.6352H26.9984V25.8169H25.8167V26.9986H24.635V28.1802H23.4534H22.2717V26.9986H21.09V25.8169H19.9083V24.6352H18.7266V23.4535H19.9083V24.6352H21.09V25.8169H22.2717V26.9986H23.4534H24.635V25.8169H25.8167V24.6352H26.9984V23.4535H28.1801V22.2718Z" fill="#292A33"/>
<path fill-rule="evenodd" clip-rule="evenodd" d="M14 31.7258V30.5441V29.3624V28.1807V26.999H15.1817H16.3634H17.5451V28.1807V29.3624V30.5441H18.7267H19.9084H21.0901H22.2718H23.4535H24.6352H25.8169H26.9986H28.1802H29.3619H30.5436V31.7258H29.3619H28.1802H26.9986H25.8169H24.6352H23.4535H22.2718H21.0901H19.9084H18.7267H17.5451H16.3634V30.5441V29.3624V28.1807H15.1817V29.3624V30.5441V31.7258H16.3634V32.9075H17.5451H18.7267H19.9084H21.0901H22.2718H23.4535H24.6352H25.8169H26.9986H28.1802H29.3619H30.5436V31.7258H31.7253V30.5441H30.5436V29.3624V28.1807V26.999H31.7253H32.907H34.0887V28.1807V29.3624V30.5441H32.907V29.3624V28.1807H31.7253V29.3624V30.5441H32.907V31.7258V32.9075H31.7253H30.5436V34.0891H29.3619H28.1802H26.9986H25.8169H24.6352H23.4535H22.2718H21.0901H19.9084H18.7267H17.5451H16.3634V32.9075H15.1817H14V31.7258Z" fill="#292A33"/>
</svg>
