<svg width="21" height="21" viewBox="0 0 21 21" fill="none" xmlns="http://www.w3.org/2000/svg">
<path fill-rule="evenodd" clip-rule="evenodd" d="M3.54504 8.27181V7.09012H4.72673V8.27181V9.45349H3.54504V8.27181ZM7.0901 9.45349V8.27181H8.27179V7.09012V5.90843V4.72675V3.54506V2.36337V1.18169V0H9.45348H10.6352H11.8168V1.18169V2.36337V3.54506V4.72675V5.90843V7.09012H12.9985V5.90843H14.1802V7.09012H12.9985V8.27181H11.8168V9.45349H10.6352V8.27181V7.09012V5.90843V4.72675V3.54506V2.36337V1.18169H9.45348V2.36337V3.54506V4.72675V5.90843V7.09012V8.27181V9.45349H8.27179H7.0901ZM5.90842 8.27181V7.09012H7.0901V8.27181H5.90842ZM4.72673 7.09012V5.90843H5.90842V7.09012H4.72673ZM14.1802 8.27181V7.09012H15.3619V8.27181V9.45349H14.1802V10.6352H12.9985V11.8169H11.8168V12.9986H10.6352V14.1802H9.45348H8.27179V12.9986H7.0901V11.8169H5.90842V10.6352H4.72673V9.45349H5.90842V10.6352H7.0901V11.8169H8.27179V12.9986H9.45348H10.6352V11.8169H11.8168V10.6352H12.9985V9.45349H14.1802V8.27181Z" fill="#292A33"/>
<path fill-rule="evenodd" clip-rule="evenodd" d="M0 17.7258V16.5441V15.3624V14.1807V12.999H1.18169H2.36337H3.54506V14.1807V15.3624V16.5441H4.72675H5.90843H7.09012H8.2718H9.45349H10.6352H11.8169H12.9986H14.1802H15.3619H16.5436V17.7258H15.3619H14.1802H12.9986H11.8169H10.6352H9.45349H8.2718H7.09012H5.90843H4.72675H3.54506H2.36337V16.5441V15.3624V14.1807H1.18169V15.3624V16.5441V17.7258H2.36337V18.9075H3.54506H4.72675H5.90843H7.09012H8.2718H9.45349H10.6352H11.8169H12.9986H14.1802H15.3619H16.5436V17.7258H17.7253V16.5441H16.5436V15.3624V14.1807V12.999H17.7253H18.907H20.0887V14.1807V15.3624V16.5441H18.907V15.3624V14.1807H17.7253V15.3624V16.5441H18.907V17.7258V18.9075H17.7253H16.5436V20.0891H15.3619H14.1802H12.9986H11.8169H10.6352H9.45349H8.2718H7.09012H5.90843H4.72675H3.54506H2.36337V18.9075H1.18169H0V17.7258Z" fill="#292A33"/>
</svg>
