<svg width="21" height="21" viewBox="0 0 21 21" fill="none" xmlns="http://www.w3.org/2000/svg">
<path fill-rule="evenodd" clip-rule="evenodd" d="M3.54492 8.27181V7.09012H4.72661V8.27181V9.45349H3.54492V8.27181ZM7.08998 9.45349V8.27181H8.27167V7.09012V5.90843V4.72675V3.54506V2.36337V1.18169V0H9.45335H10.635H11.8167V1.18169V2.36337V3.54506V4.72675V5.90843V7.09012H12.9984V5.90843H14.1801V7.09012H12.9984V8.27181H11.8167V9.45349H10.635V8.27181V7.09012V5.90843V4.72675V3.54506V2.36337V1.18169H9.45335V2.36337V3.54506V4.72675V5.90843V7.09012V8.27181V9.45349H8.27167H7.08998ZM5.90829 8.27181V7.09012H7.08998V8.27181H5.90829ZM4.72661 7.09012V5.90843H5.90829V7.09012H4.72661ZM14.1801 8.27181V7.09012H15.3618V8.27181V9.45349H14.1801V10.6352H12.9984V11.8169H11.8167V12.9986H10.635V14.1802H9.45335H8.27167V12.9986H7.08998V11.8169H5.90829V10.6352H4.72661V9.45349H5.90829V10.6352H7.08998V11.8169H8.27167V12.9986H9.45335H10.635V11.8169H11.8167V10.6352H12.9984V9.45349H14.1801V8.27181Z" fill="#DAE8FF"/>
<path fill-rule="evenodd" clip-rule="evenodd" d="M0 17.7258V16.5441V15.3624V14.1807V12.999H1.18169H2.36337H3.54506V14.1807V15.3624V16.5441H4.72675H5.90843H7.09012H8.2718H9.45349H10.6352H11.8169H12.9986H14.1802H15.3619H16.5436V17.7258H15.3619H14.1802H12.9986H11.8169H10.6352H9.45349H8.2718H7.09012H5.90843H4.72675H3.54506H2.36337V16.5441V15.3624V14.1807H1.18169V15.3624V16.5441V17.7258H2.36337V18.9075H3.54506H4.72675H5.90843H7.09012H8.2718H9.45349H10.6352H11.8169H12.9986H14.1802H15.3619H16.5436V17.7258H17.7253V16.5441H16.5436V15.3624V14.1807V12.999H17.7253H18.907H20.0887V14.1807V15.3624V16.5441H18.907V15.3624V14.1807H17.7253V15.3624V16.5441H18.907V17.7258V18.9075H17.7253H16.5436V20.0891H15.3619H14.1802H12.9986H11.8169H10.6352H9.45349H8.2718H7.09012H5.90843H4.72675H3.54506H2.36337V18.9075H1.18169H0V17.7258Z" fill="#DAE8FF"/>
</svg>
