<svg width="1440" height="481" viewBox="0 0 1440 481" fill="none" xmlns="http://www.w3.org/2000/svg">
<path d="M792 109.5H902" stroke="white"/>
<path d="M459.5 120.5L484.5 146.5H555.5L614 200H649.5H697L719 149H775.5L786 122.5H846L899.5 182H1112L1161 129.5H1220.5L1229.5 139H1388.5L1449 109.5" stroke="white"/>
<path d="M0.5 226.5H78L97 204.5H361.5H404.5L423 183M573.5 183L609 214H784.5L804 239H846.5" stroke="white"/>
<path d="M189.5 391H-2.5" stroke="white"/>
<path d="M-2 345.5H630.633L655 345.5L708.587 292.5H859" stroke="white"/>
<path d="M0 298.5H631.676H660.5" stroke="white"/>
<path d="M1 340H614H635.5H652.5L679 312" stroke="white"/>
<path d="M1 350.5H614H635.5H658.5L712 297H837.5H860.5" stroke="white"/>
<path d="M1 66.5H82L136 120H287.5L326 83.5H369H591.5L602.5 73H790" stroke="white"/>
<path d="M0 62H84.5L138.5 115.5H286L323 79.5H372.5H590.5L599.5 68H689H701.5H717L755.5 34.5L793 0.5H1112.5" stroke="white"/>
<path d="M846.5 233H808L789 208.5H706L704 204.5H658.5H611.5L553 151H485H439L401.5 197.5H93.5L74 219.5H-1.5" stroke="white"/>
<circle cx="903" cy="108.5" r="4.5" fill="white" stroke="white"/>
<circle cx="903" cy="108.5" r="1.5" fill="white" stroke="white"/>
<path d="M791.5 117.5H908L926.5 97H1120.5" stroke="white"/>
<path d="M601.5 397.5H629.5L677.5 348.5H706L745.5 388.5H881L892 436H1023L1027 441.5H1214H1271L1316 480H1396.5" stroke="white"/>
<path d="M1214 135.5L1224.03 144.5H1388" stroke="white"/>
<path d="M1440 352H1349.5L1324 384.5H1243" stroke="white"/>
<path d="M1440 345H1345.5L1319.5 378H1268.5" stroke="white"/>
</svg>
