<svg width="23" height="23" viewBox="0 0 23 23" fill="none" xmlns="http://www.w3.org/2000/svg">
<path fill-rule="evenodd" clip-rule="evenodd" d="M16.4053 14.185L15.474 13.9969L14.5427 13.8088L13.6114 13.6207L12.6802 13.4326L12.8683 12.5013L11.937 12.3132L11.0057 12.1251L11.1938 11.1938L10.2626 11.0057L10.4507 10.0744L11.3819 10.2626L11.1938 11.1938L12.1251 11.3819L13.0564 11.57L12.8683 12.5013L13.7995 12.6894L14.7308 12.8775L15.6621 13.0656L16.5934 13.2537L17.5246 13.4419L18.4559 13.63L18.2678 14.5612L17.3365 14.3731L16.4053 14.185ZM18.4559 13.63L18.644 12.6987L19.5753 12.8868L20.5066 13.0749L20.3185 14.0062L20.1304 14.9375L19.9423 15.8687L19.7541 16.8L19.566 17.7313L18.6348 17.5432L18.8229 16.6119L19.011 15.6806L19.1991 14.7493L19.3872 13.8181L18.4559 13.63ZM9.52865 5.04185L9.71676 4.11058L9.90486 3.1793L10.093 2.24803L11.0242 2.43614L10.8361 3.36741L10.648 4.29869L10.4599 5.22996L10.2718 6.16124L10.0837 7.09251L9.8956 8.02379L8.96433 7.83568L9.15243 6.9044L9.34054 5.97313L9.52865 5.04185ZM9.70749 8.95506L9.8956 8.02379L10.8269 8.21189L10.6388 9.14317L10.4507 10.0744L9.51939 9.88634L9.70749 8.95506ZM10.093 2.24803L9.1617 2.05992L8.23042 1.87181L8.04231 2.80309L7.11104 2.61498L6.17976 2.42687L5.99166 3.35815L5.80355 4.28942L4.87227 4.10132L5.06038 3.17004L5.24849 2.23877L6.17976 2.42687L6.36787 1.4956L7.29915 1.68371L8.23042 1.87181L8.41853 0.940539L9.3498 1.12865L10.2811 1.31675L10.093 2.24803ZM2.25729 7.4502L2.4454 6.51893L2.63351 5.58765L2.82162 4.65638L3.75289 4.84448L3.56478 5.77576L3.37668 6.70703L3.18857 7.63831L3.00046 8.56958L2.81235 9.50086L2.62424 10.4321L2.43614 11.3634L2.24803 12.2947L2.05992 13.226L2.9912 13.4141L2.80309 14.3453L2.61498 15.2766L3.54626 15.4647L3.35815 16.396L2.42687 16.2079L2.61498 15.2766L1.68371 15.0885L1.87181 14.1572L2.05992 13.226L1.12865 13.0379L1.31675 12.1066L1.50486 11.1753L1.69297 10.244L1.88108 9.31275L2.06919 8.38148L2.25729 7.4502ZM3.75289 4.84448L3.941 3.91321L4.87227 4.10132L4.68417 5.03259L3.75289 4.84448ZM7.4502 20.1304L6.51893 19.9423L5.58765 19.7541L5.77576 18.8229L6.70703 19.011L7.63831 19.1991L8.56958 19.3872L9.50086 19.5753L10.4321 19.7634L11.3634 19.9515L12.2947 20.1396L13.226 20.3277L13.4141 19.3965L14.3453 19.5846L15.2766 19.7727L15.4647 18.8414L16.396 19.0295L16.2079 19.9608L15.2766 19.7727L15.0885 20.7039L14.1572 20.5158L13.226 20.3277L13.0379 21.259L12.1066 21.0709L11.1753 20.8828L10.244 20.6947L9.31275 20.5066L8.38148 20.3185L7.4502 20.1304ZM5.77576 18.8229L4.84448 18.6348L3.91321 18.4467L4.10132 17.5154L5.03259 17.7035L5.96387 17.8916L5.77576 18.8229ZM3.17004 17.3273L3.35815 16.396L4.28942 16.5841L4.10132 17.5154L3.17004 17.3273ZM17.5154 18.2863L17.7035 17.3551L18.6348 17.5432L18.4467 18.4744L17.5154 18.2863ZM16.396 19.0295L16.5841 18.0982L17.5154 18.2863L17.3273 19.2176L16.396 19.0295Z" fill="#C7C7C7"/>
<path fill-rule="evenodd" clip-rule="evenodd" d="M3.92258 13.6021L4.11069 12.6708L5.04197 12.8589L4.85386 13.7902L4.66575 14.7214L3.73448 14.5333L3.92258 13.6021ZM4.47764 15.6527L4.66575 14.7214L5.59703 14.9095L5.40892 15.8408L4.47764 15.6527ZM4.11996 7.8263L4.30806 6.89502L4.49617 5.96375L5.42745 6.15185L5.61555 5.22058L5.80366 4.2893L6.73494 4.47741L6.92304 3.54614L7.85432 3.73425L8.7856 3.92235L8.59749 4.85363L8.40938 5.7849L8.22127 6.71618L8.03316 7.64745L7.84506 8.57873L8.77633 8.76684L8.58822 9.69811L9.5195 9.88622L9.33139 10.8175L9.14328 11.7488L8.21201 11.5607L8.40012 10.6294L8.58822 9.69811L7.65695 9.51L7.84506 8.57873L6.91378 8.39062L7.10189 7.45935L7.29 6.52807L7.4781 5.5968L7.66621 4.66552L6.73494 4.47741L6.54683 5.40869L6.35872 6.33996L5.42745 6.15185L5.23934 7.08313L5.05123 8.0144L4.86312 8.94568L4.67502 9.87695L4.48691 10.8082L4.2988 11.7395L4.11069 12.6708L3.17942 12.4827L3.36753 11.5514L3.55563 10.6201L3.74374 9.68885L3.93185 8.75757L4.11996 7.8263ZM15.0979 15.8593L14.1666 15.6712L13.2353 15.4831L12.3041 15.295L12.4922 14.3637L13.4234 14.5519L14.3547 14.74L15.286 14.9281L16.2173 15.1162L17.1485 15.3043L18.0798 15.4924L17.8917 16.4237L16.9604 16.2356L16.7723 17.1668L15.8411 16.9787L15.6529 17.91L14.7217 17.7219L14.5336 18.6532L13.6023 18.4651L13.7904 17.5338L14.7217 17.7219L14.9098 16.7906L15.8411 16.9787L16.0292 16.0475L15.0979 15.8593ZM12.4922 14.3637L11.5609 14.1756L10.6296 13.9875L10.8177 13.0563L11.749 13.2444L12.6803 13.4325L12.4922 14.3637ZM10.8177 13.0563L9.88645 12.8682L8.95518 12.68L9.14328 11.7488L10.0746 11.9369L11.0058 12.125L10.8177 13.0563ZM10.6204 18.832L9.68908 18.6439L8.7578 18.4558L7.82653 18.2677L6.89525 18.0796L7.08336 17.1483L6.15209 16.9602L5.22081 16.7721L5.40892 15.8408L6.34019 16.0289L7.27147 16.217L7.08336 17.1483L8.01464 17.3364L8.94591 17.5245L9.87719 17.7126L10.8085 17.9007L11.7397 18.0888L12.671 18.277L13.6023 18.4651L13.4142 19.3963L12.4829 19.2082L11.5516 19.0201L10.6204 18.832Z" fill="#C7C7C7"/>
</svg>
