<svg width="332" height="50" viewBox="0 0 332 50" fill="none" xmlns="http://www.w3.org/2000/svg">
<path fill-rule="evenodd" clip-rule="evenodd" d="M9.22216 40V35H13.8332V40H9.22216ZM18.4443 40H23.0554H27.6665V45H32.2776V50H27.6665H23.0554H18.4443H13.8332H9.22216V45H13.8332V40H18.4443ZM27.6665 40V35V30H32.2776V25H36.8886V30V35V40V45H32.2776V40H27.6665ZM23.0554 30H18.4443H13.8332V25H18.4443V20H13.8332V25H9.22216H4.61108V20V15H9.22216V10H4.61108V15H0V10H4.61108V5H9.22216V0H13.8332H18.4443H23.0554H27.6665H32.2776V5H27.6665V10H32.2776V5H36.8886V10V15H32.2776H27.6665V10H23.0554H18.4443H13.8332V15H18.4443V20H23.0554H27.6665H32.2776V25H27.6665V30H23.0554ZM4.61108 45V40H9.22216V45H4.61108ZM0 40V35V30H4.61108H9.22216V35H4.61108V40H0Z" fill="#383838"/>
<path fill-rule="evenodd" clip-rule="evenodd" d="M64.5537 0H69.1648H73.7758V5V10H69.1648H64.5537H59.9426H55.3315H50.7204V15V20H55.3315H59.9426H64.5537H69.1648H73.7758V25H69.1648V30H64.5537H59.9426H55.3315H50.7204V35V40H55.3315H59.9426H64.5537H69.1648H73.7758V45V50H69.1648H64.5537H59.9426H55.3315H50.7204H46.1094H41.4983H36.8872V45V40V35V30V25V20V15V10V5V0H41.4983H46.1094H50.7204H55.3315H59.9426H64.5537ZM46.1094 5H41.4983V10V15V20V25V30V35V40V45H46.1094V40V35V30V25V20V15V10V5Z" fill="#383838"/>
<path fill-rule="evenodd" clip-rule="evenodd" d="M96.8308 5H92.2197H87.6086H82.9975H78.3865V10V15V20V25V30V35V40V45H82.9975V40V35V30V25H87.6086H92.2197H96.8308V30H101.442V25H106.053V20H110.664V15V10H115.275V15V20H110.664V25H106.053V30H110.664V35V40H115.275V45H119.886V50H115.275H110.664H106.053V45H101.442V40V35H96.8308V30H92.2197H87.6086V35V40V45V50H82.9975H78.3865H73.7754V45V40V35V30V25V20V15V10V5V0H78.3865H82.9975H87.6086H92.2197H96.8308H101.442H106.053H110.664V5V10H106.053V5H101.442H96.8308ZM106.053 35V30H101.442V35H106.053ZM110.664 45V40H106.053V45H110.664Z" fill="#383838"/>
<path fill-rule="evenodd" clip-rule="evenodd" d="M101.444 25.002H96.8327H92.2217H87.6106H82.9995V20.002V15.002V10.002V5.00195H87.6106H92.2217H96.8327H101.444H106.055V10.002V15.002V20.002H101.444V25.002ZM96.8327 20.002H101.444V15.002V10.002H96.8327H92.2217H87.6106V15.002V20.002H92.2217H96.8327Z" fill="#383838"/>
<path fill-rule="evenodd" clip-rule="evenodd" d="M124.493 20H119.882V25H124.493V20ZM124.493 15V20H129.104H133.715H138.326H142.937V15V10V5V0H147.549H152.16V5V10V15V20V25V30V35V40V45V50H147.549H142.937V45V40V35V30H138.326H133.715H129.104H124.493V35V40V45V50H119.882H115.271V45V40V35V30V25V20V15V10V5V0H119.882H124.493V5V10V15Z" fill="#383838"/>
<path fill-rule="evenodd" clip-rule="evenodd" d="M165.997 40V45V50H161.386H156.775V45V40V35V30V25V20V15V10V5V0H161.386H165.997V5V10V15V20V25V30V35V40Z" fill="#383838"/>
<path fill-rule="evenodd" clip-rule="evenodd" d="M179.834 40V45V50H175.223H170.612V45V40V35V30V25V20V15V10V5V0H175.223H179.834V5V10V15V20V25V30V35V40Z" fill="#383838"/>
<path fill-rule="evenodd" clip-rule="evenodd" d="M189.052 25H184.441V30H189.052V25ZM189.052 15V20H193.663V15H198.274V10H202.885V5H207.497V0H212.108H216.719V5H212.108V10H207.497V15H202.885V20V25H207.497V30H212.108V35V40H216.719V45H221.33V50H216.719H212.108H207.497V45V40H202.885V35H198.274V30H193.663H189.052V35V40V45V50H184.441H179.83V45V40V35V30V25V20V15V10V5V0H184.441H189.052V5V10V15ZM207.497 35V30H202.885V25H198.274V30H202.885V35H207.497Z" fill="#383838"/>
<path fill-rule="evenodd" clip-rule="evenodd" d="M239.78 5H235.169H230.558H225.947V0H230.558H235.169H239.78H244.392H249.003H253.614V5H258.225V10V15V20H262.836V25V30H258.225V35V40H253.614V45H249.003V40H253.614V35V30H258.225V25V20H253.614V15V10V5H249.003H244.392H239.78ZM244.392 50H239.78H235.169H230.558H225.947V45H230.558H235.169H239.78H244.392H249.003V50H244.392ZM216.725 40V35V30V25V20V15V10H221.336V5H225.947V10H221.336V15V20V25V30V35V40H216.725ZM221.336 45V40H225.947V45H221.336Z" fill="#383838"/>
<path fill-rule="evenodd" clip-rule="evenodd" d="M239.774 45.002H235.163H230.552V40.002H235.163H239.774H244.385H248.997V45.002H244.385H239.774ZM248.997 30.002V25.002V20.002V15.002V10.002H253.608V15.002V20.002V25.002V30.002V35.002V40.002H248.997V35.002V30.002ZM244.385 10.002H239.774H235.163H230.552V15.002H225.941V20.002V25.002V30.002V35.002H230.552V40.002H225.941V35.002H221.33V30.002V25.002V20.002V15.002H225.941V10.002V5.00195H230.552H235.163H239.774H244.385H248.997V10.002H244.385Z" fill="#383838"/>
<path fill-rule="evenodd" clip-rule="evenodd" d="M276.666 15V10H272.054H267.443H262.832V5H258.221V0H262.832H267.443H272.054H276.666H281.277H285.888H290.499H295.11V5V10H290.499V15H285.888V20H281.277V25H276.666V30V35H272.054V40H276.666H281.277H285.888H290.499H295.11V45V50H290.499H285.888H281.277H276.666H272.054H267.443H262.832H258.221V45V40V35H262.832V30H267.443V25H272.054V20H276.666V15ZM281.277 10V15H285.888V10H281.277ZM272.054 30H267.443V35H262.832V40V45H267.443V40V35H272.054V30ZM285.888 5V10H290.499V5H285.888Z" fill="#383838"/>
<path fill-rule="evenodd" clip-rule="evenodd" d="M304.333 15V20H308.945H313.556H318.167H322.778V25H327.389V20H322.778V15V10V5V0H327.389H332V5V10V15V20V25V30V35V40V45V50H327.389H322.778V45V40V35V30H318.167H313.556H308.945H304.333V35V40V45V50H299.722H295.111V45V40V35V30V25V20V15V10V5V0H299.722H304.333V5V10V15Z" fill="#383838"/>
</svg>
